<svg width="1920" height="175" viewBox="0 0 1920 175" fill="none" xmlns="http://www.w3.org/2000/svg">
<path fill-rule="evenodd" clip-rule="evenodd" d="M994.168 0.503403C1316.33 4.09549 1655.22 32.1909 1851.92 90.6851C2033.8 144.769 1911.59 221.566 1963.54 288.767C2005.31 342.793 2161.19 390.716 2125.82 444.981C2086.64 505.099 1961.71 562.47 1759.46 601.875C1547.63 643.145 1267.08 677.822 994.168 665.465C729.655 653.488 647.256 574.939 421.263 541.282C173.995 504.456 -257.101 524.639 -370.126 462.278C-480.849 401.188 -118.492 347.525 -45.9428 283.507C34.4206 212.593 -132.606 126.923 73.4557 70.8553C286.939 12.7686 662.882 -3.1904 994.168 0.503403Z" fill="#FFB703"/>
</svg>
