<svg width="720" height="120" viewBox="0 0 720 120" fill="none" xmlns="http://www.w3.org/2000/svg">
<g clip-path="url(#clip0_68_32)">
<path fill-rule="evenodd" clip-rule="evenodd" d="M311.177 -756.339C556.823 -751.623 815.219 -714.737 965.205 -637.942C1103.88 -566.936 1010.7 -466.112 1050.32 -377.886C1082.16 -306.956 1201.02 -244.039 1174.05 -172.796C1144.17 -93.8682 1048.91 -18.5475 894.702 33.1859C733.189 87.3684 519.268 132.895 311.177 116.671C109.488 100.947 46.6602 -2.177 -125.657 -46.365C-314.197 -94.713 -642.903 -68.2155 -729.084 -150.087C-813.509 -230.29 -537.215 -300.743 -481.897 -384.791C-420.621 -477.892 -547.977 -590.367 -390.857 -663.976C-228.078 -740.236 58.5748 -761.189 311.177 -756.339Z" fill="#FFB703"/>
</g>
<defs>
<clipPath id="clip0_68_32">
<rect width="720" height="120" fill="white"/>
</clipPath>
</defs>
</svg>
