<svg width="34" height="29" viewBox="0 0 34 29" fill="none" xmlns="http://www.w3.org/2000/svg">
<path d="M31.7402 14.5002C31.7402 12.3627 29.2652 10.5627 25.3277 9.43774C26.3402 5.50024 26.0027 2.46274 24.2027 1.33774C23.7527 1.11274 23.3027 1.00024 22.7402 1.00024C21.0527 1.00024 18.8027 2.23774 16.5527 4.37524C14.3027 2.23774 12.1652 1.00024 10.3652 1.00024C9.80273 1.00024 9.35273 1.11274 8.90273 1.33774C7.21523 2.46274 6.87773 5.50024 7.77773 9.43774C3.95273 10.5627 1.36523 12.4752 1.36523 14.5002C1.36523 16.6377 3.84023 18.4377 7.77773 19.5627C6.87773 23.5002 7.21523 26.6502 9.01523 27.6627C9.46523 27.8877 9.91523 28.0002 10.4777 28.0002C12.1652 28.0002 14.4152 26.7627 16.6652 24.6252C18.9152 26.7627 21.0527 28.0002 22.8527 28.0002C23.4152 28.0002 23.8652 27.8877 24.3152 27.6627C26.1152 26.6502 26.4527 23.5002 25.5527 19.5627C29.2652 18.4377 31.7402 16.5252 31.7402 14.5002ZM22.7402 2.46274C23.0777 2.46274 23.3027 2.46274 23.4152 2.68774C24.3152 3.13774 24.6527 4.93774 24.3152 7.30024C24.2027 7.86274 24.0902 8.53774 23.9777 9.10024C22.7402 8.76274 21.5027 8.65024 20.0402 8.42524C19.2527 7.30024 18.4652 6.28774 17.5652 5.38774C19.5902 3.47524 21.5027 2.46274 22.7402 2.46274ZM20.7152 16.8627C20.2652 17.6502 19.8152 18.4377 19.2527 19.1127C18.3527 19.2252 17.4527 19.2252 16.5527 19.2252C15.6527 19.2252 14.7527 19.2252 13.8527 19.1127C13.4027 18.4377 12.9527 17.6502 12.3902 16.8627C11.9402 16.0752 11.4902 15.2877 11.1527 14.5002C11.4902 13.7127 11.9402 12.9252 12.3902 12.1377C12.8402 11.3502 13.4027 10.5627 13.8527 9.77524C14.7527 9.66274 15.6527 9.66274 16.5527 9.66274C17.4527 9.66274 18.3527 9.66274 19.2527 9.77524C19.7027 10.4502 20.2652 11.2377 20.7152 12.1377C21.1652 12.9252 21.6152 13.7127 21.9527 14.5002C21.6152 15.2877 21.1652 16.0752 20.7152 16.8627ZM22.7402 16.1877C23.0777 16.9752 23.3027 17.7627 23.5277 18.4377C22.7402 18.6627 21.9527 18.7752 21.1652 18.8877C21.3902 18.4377 21.7277 17.9877 21.9527 17.5377C22.2902 17.2002 22.5152 16.6377 22.7402 16.1877ZM16.5527 22.6002C15.9902 22.0377 15.4277 21.3627 14.9777 20.6877C15.5402 20.6877 16.1027 20.6877 16.5527 20.6877C17.1152 20.6877 17.6777 20.6877 18.1277 20.6877C17.6777 21.3627 17.1152 22.0377 16.5527 22.6002ZM11.9402 19.0002C11.1527 18.8877 10.3652 18.7752 9.57773 18.5502C9.80273 17.7627 10.1402 16.9752 10.3652 16.3002C10.5902 16.7502 10.8152 17.2002 11.1527 17.6502C11.4902 18.1002 11.7152 18.5502 11.9402 19.0002ZM10.3652 12.8127C10.0277 12.0252 9.80273 11.2377 9.46523 10.4502C10.2527 10.2252 11.0402 10.1127 11.9402 10.0002C11.6027 10.4502 11.3777 10.9002 11.0402 11.3502C10.9277 11.9127 10.7027 12.3627 10.3652 12.8127ZM16.5527 6.40024C17.1152 6.96274 17.5652 7.63774 18.1277 8.20024C17.5652 8.20024 17.1152 8.20024 16.5527 8.20024C15.9902 8.20024 15.5402 8.20024 14.9777 8.20024C15.5402 7.63774 16.1027 6.96274 16.5527 6.40024ZM21.9527 11.3502C21.6152 10.9002 21.3902 10.4502 21.0527 10.0002C21.9527 10.1127 22.7402 10.2252 23.5277 10.4502C23.3027 11.2377 22.9652 12.0252 22.6277 12.8127C22.5152 12.3627 22.2902 11.9127 21.9527 11.3502ZM8.90273 7.18774C8.56523 4.82524 8.90273 3.13774 9.80273 2.57524C10.0277 2.46274 10.2527 2.35024 10.4777 2.35024C11.7152 2.35024 13.5152 3.36274 15.5402 5.27524C14.7527 6.17524 13.8527 7.18774 13.0652 8.31274C11.7152 8.42524 10.3652 8.65024 9.12774 8.98774C9.01524 8.42524 8.90273 7.75024 8.90273 7.18774ZM6.42773 17.5377C4.29023 16.6377 2.82773 15.4002 2.82773 14.5002C2.82773 13.4877 4.17773 12.3627 6.31523 11.4627C6.87773 11.2377 7.44023 11.0127 8.11523 10.9002C8.45273 12.1377 8.90273 13.3752 9.57773 14.6127C9.01523 15.8502 8.56523 17.0877 8.22773 18.2127C7.55273 17.9877 6.99023 17.7627 6.42773 17.5377ZM9.69024 26.4252C8.79024 25.9752 8.45273 24.1752 8.79023 21.8127C8.90273 21.2502 9.01524 20.5752 9.12774 19.9002C10.3652 20.1252 11.6027 20.3502 12.9527 20.4627C13.7402 21.5877 14.6402 22.6002 15.4277 23.5002C13.4027 25.4127 11.6027 26.4252 10.3652 26.4252C10.1402 26.5377 9.91524 26.4252 9.69024 26.4252ZM24.3152 21.8127C24.6527 24.1752 24.3152 25.8627 23.4152 26.4252C23.1902 26.5377 22.9652 26.6502 22.7402 26.6502C21.5027 26.6502 19.7027 25.6377 17.6777 23.7252C18.5777 22.8252 19.3652 21.8127 20.1527 20.6877C21.5027 20.5752 22.8527 20.3502 23.9777 20.1252C24.0902 20.5752 24.2027 21.1377 24.3152 21.8127ZM26.7902 17.5377C26.2277 17.7627 25.6652 17.9877 24.9902 18.1002C24.6527 16.9752 24.2027 15.7377 23.6402 14.5002C24.2027 13.2627 24.6527 12.0252 25.1027 10.7877C25.6652 11.0127 26.3402 11.1252 26.9027 11.3502C29.0402 12.2502 30.3902 13.3752 30.3902 14.3877C30.2777 15.4002 28.9277 16.6377 26.7902 17.5377Z" fill="black"/>
<path d="M16.666 17.3127C18.241 17.3127 19.4785 16.0752 19.4785 14.5002C19.4785 12.9252 18.241 11.6877 16.666 11.6877C15.091 11.6877 13.8535 12.9252 13.8535 14.5002C13.8535 16.0752 15.091 17.3127 16.666 17.3127Z" fill="black"/>
</svg>
