<svg width="22" height="22" viewBox="0 0 22 22" fill="none" xmlns="http://www.w3.org/2000/svg">
<path fill-rule="evenodd" clip-rule="evenodd" d="M19.2493 7.33325C19.2493 5.81447 18.0182 4.58325 16.4993 4.58325H9.16602C7.64724 4.58325 6.41602 5.81447 6.41602 7.33325V18.3333C6.41602 19.8521 7.64724 21.0833 9.16602 21.0833H16.4993C18.0182 21.0833 19.2493 19.8521 19.2493 18.3333V7.33325ZM17.416 7.33325C17.416 6.827 17.0056 6.41659 16.4993 6.41659H9.16602C8.65976 6.41659 8.24935 6.827 8.24935 7.33325V18.3333C8.24935 18.8395 8.65976 19.2499 9.16602 19.2499H16.4993C17.0056 19.2499 17.416 18.8395 17.416 18.3333V7.33325Z" fill="#0F0F0F"/>
<path d="M5.5 2.75008H14.6667C15.1729 2.75008 15.5833 2.33967 15.5833 1.83341C15.5833 1.32716 15.1729 0.916748 14.6667 0.916748H5.5C3.98122 0.916748 2.75 2.14797 2.75 3.66675V16.5001C2.75 17.0064 3.16041 17.4167 3.66667 17.4167C4.17292 17.4167 4.58333 17.0064 4.58333 16.5001V3.66675C4.58333 3.16049 4.99374 2.75008 5.5 2.75008Z" fill="#0F0F0F"/>
</svg>
