<svg width="56" height="56" viewBox="0 0 56 56" fill="none" xmlns="http://www.w3.org/2000/svg">
<path d="M0 12C0 5.37258 5.37258 0 12 0H44C50.6274 0 56 5.37258 56 12V44C56 50.6274 50.6274 56 44 56H12C5.37258 56 0 50.6274 0 44V12Z" fill="#FFB703"/>
<path fill-rule="evenodd" clip-rule="evenodd" d="M12.375 17L11 18.2083V37.5417L12.375 38.75H42.625L44 37.5417V18.2083L42.625 17H12.375ZM13.75 20.94V36.3333H41.25V20.9396L27.4998 31.9247L13.75 20.94ZM39.0682 19.4167H15.9314L27.4998 28.6586L39.0682 19.4167Z" fill="white"/>
</svg>
