<svg width="36" height="28" viewBox="0 0 36 28" fill="none" xmlns="http://www.w3.org/2000/svg">
<g clip-path="url(#clip0_228_32)">
<path d="M8.23272 1.26906H13.9871V17.3985C13.9871 24.667 10.5032 27.2044 4.93749 27.2044C3.57522 27.2044 1.83249 26.9774 0.697266 26.5984L1.34158 21.9409C2.13624 22.2063 3.15948 22.395 4.29471 22.395C6.71857 22.395 8.23272 21.2966 8.23272 17.3601V1.26906ZM18.9836 20.8824C20.4978 21.6771 22.9216 22.4733 25.3823 22.4733C28.0332 22.4733 29.4339 21.3749 29.4339 19.672C29.4339 18.1195 28.2219 17.173 25.1553 16.1129C20.915 14.5988 18.1138 12.2516 18.1138 8.5023C18.1138 4.14855 21.7864 0.854858 27.7678 0.854858C30.6826 0.854858 32.7659 1.42247 34.28 2.14196L32.9929 6.76111C32.0081 6.26867 30.1533 5.54918 27.6927 5.54918C25.1936 5.54918 23.9817 6.72276 23.9817 8.00986C23.9817 9.63753 25.3823 10.357 28.7144 11.6441C33.22 13.3101 35.3018 15.6573 35.3018 19.2916C35.3018 23.5701 32.0464 27.2044 25.0418 27.2044C22.127 27.2044 19.249 26.4097 17.8101 25.6136L18.9836 20.8824Z" fill="#444444"/>
</g>
<defs>
<clipPath id="clip0_228_32">
<rect width="36" height="27" fill="white" transform="translate(0 0.5)"/>
</clipPath>
</defs>
</svg>
