<?xml version="1.0" encoding="UTF-8"?><svg id="Layer_1" xmlns="http://www.w3.org/2000/svg" viewBox="0 0 562.28 258.9"><defs><style>.cls-1{fill:#023047;font-family:EpilogueRoman-Bold, Epilogue;font-size:154.06px;font-variation-settings:'wght' 700;font-weight:700;}.cls-2{fill:#ffb703;}.cls-2,.cls-3{stroke-width:0px;}.cls-3{fill:#fff;}</style></defs><path class="cls-3" d="M33.87,248.4c-11.24,0-23.37-8.93-23.37-23.37V33.87c0-14.43,12.13-23.37,23.37-23.37,4.05,0,7.96,1.07,11.61,3.17l165.56,95.58c7.3,4.21,11.66,11.76,11.66,20.19s-4.36,15.98-11.66,20.19L45.47,245.22c-3.65,2.11-7.55,3.17-11.61,3.17Z"/><path class="cls-2" d="M33.87,21c2.19,0,4.32.59,6.36,1.77l165.56,95.58c5.78,3.34,6.41,8.87,6.41,11.1s-.62,7.76-6.41,11.1L40.22,236.13c-2.03,1.17-4.17,1.77-6.36,1.77-6.19,0-12.87-4.92-12.87-12.87V33.87c0-7.95,6.68-12.87,12.87-12.87M33.87,0C16.2,0,0,14.12,0,33.87v191.17c0,19.74,16.2,33.87,33.87,33.87,5.63,0,11.41-1.43,16.86-4.58l165.56-95.58c22.54-13.02,22.54-45.55,0-58.57L50.72,4.58C45.27,1.44,39.49,0,33.87,0h0Z"/><text class="cls-1" transform="translate(243 172.29)"><tspan x="0" y="0">eniz</tspan></text></svg>