<svg width="37" height="36" viewBox="0 0 37 36" fill="none" xmlns="http://www.w3.org/2000/svg">
<g clip-path="url(#clip0_228_49)">
<path d="M-4.37891 1.38464V4.84618C1.15224 4.84618 3.81204 5.83184 3.92879 10.3846V16.6154C3.92879 22.1539 8.08263 24.9231 10.8519 24.9231C10.8519 24.9231 8.08263 22.1539 8.08263 16.6154V10.3846C8.08263 8.00045 7.23778 6.20403 5.91917 4.84618C9.39061 4.84618 12.1296 6.29474 12.2365 10.3846V16.6154C12.2365 22.1539 16.3903 24.9231 19.1596 24.9231C19.1596 24.9231 16.3903 22.1539 16.3903 16.6154V10.3846C16.3903 7.8524 15.7188 6.07 14.7461 4.84618C17.7749 4.84618 20.5442 6.37058 20.5442 10.3846V16.6154C20.5442 22.1539 24.698 24.9231 27.4672 24.9231C27.4672 24.9231 24.698 22.1539 24.698 16.6154V10.3846C24.698 2.07695 17.7749 1.38464 15.0057 1.38464H-4.37891ZM3.92879 27.6923C2.4503 27.6923 -0.203696 30.4616 -1.60968 30.4616V34.6154C-0.122089 34.6154 2.61457 31.8462 3.92879 31.8462C5.32514 31.8462 7.98876 34.6154 9.46725 34.6154C10.784 34.6154 13.5997 31.8462 15.0057 31.8462C16.4021 31.8462 19.2197 34.6154 20.5442 34.6154C21.9405 34.6154 24.7684 31.8462 26.0826 31.8462C27.3968 31.8462 30.2247 34.6154 31.6211 34.6154V30.4616C30.4712 30.4616 27.5611 27.6102 26.0826 27.6923C24.7582 27.6923 22.0249 30.4616 20.5442 30.4616C19.3121 30.4616 16.4021 27.6923 15.0057 27.6923C13.6094 27.6923 10.7021 30.4616 9.46725 30.4616C8.15047 30.4616 5.40727 27.6923 3.92879 27.6923Z" fill="black"/>
</g>
<defs>
<clipPath id="clip0_228_49">
<rect width="36" height="36" fill="white" transform="translate(0.554688)"/>
</clipPath>
</defs>
</svg>
